<svg xmlns="http://www.w3.org/2000/svg" version="1.1" xmlns:xlink="http://www.w3.org/1999/xlink" xmlns:svgjs="http://svgjs.dev/svgjs" width="2000" height="1247" viewBox="0 0 2000 1247"><g transform="matrix(1,0,0,1,-1.2121212121212466,0.504858299595071)"><svg viewBox="0 0 396 247" data-background-color="#ffffff" preserveAspectRatio="xMidYMid meet" height="1247" width="2000" xmlns="http://www.w3.org/2000/svg" xmlns:xlink="http://www.w3.org/1999/xlink"><g id="tight-bounds" transform="matrix(1,0,0,1,0.2400000000000091,-0.09999999999999432)"><svg viewBox="0 0 395.52 247.2" height="247.2" width="395.52"><g><svg></svg></g><g><svg viewBox="0 0 395.52 247.2" height="247.2" width="395.52"><g><g><path d="M153.909 244.457h-152.915l0-63.149 27.772 0v39.835h125.143zM0.994 2.743h152.915v23.314h-125.143l0 39.835-27.772 0zM252.583 232.251c-16.914-9.92-29.897-24.206-38.949-42.857-1.272-2.628-2.454-5.323-3.546-8.086l30.725 0c2.865 5.744 6.262 10.954 10.193 15.629 14.537 17.28 35.063 25.92 61.577 25.92 13.486 0 25.829-2.171 37.028-6.514 11.2-4.343 22.629-11.429 34.286-21.257l10.629 21.6c-10.286 10.057-22.4 17.646-36.343 22.765-13.943 5.166-29.257 7.749-45.943 7.749-22.857 0-42.743-4.983-59.657-14.949zM213.634 57.6c9.051-18.514 22.034-32.754 38.949-42.72 16.914-9.92 36.8-14.88 59.657-14.88 16.686 0 32 2.583 45.943 7.749 13.943 5.12 26.057 12.709 36.343 22.765l-10.629 21.6c-11.657-9.829-23.086-16.914-34.286-21.257-11.2-4.343-23.543-6.514-37.028-6.514-26.514 0-47.04 8.617-61.577 25.851-3.945 4.704-7.353 9.937-10.224 15.698l-30.79 0c1.119-2.836 2.333-5.6 3.642-8.292z" fill="#000000" fill-rule="nonzero" stroke="none" stroke-width="1" stroke-linecap="butt" stroke-linejoin="miter" stroke-miterlimit="10" stroke-dasharray="" stroke-dashoffset="0" font-family="none" font-weight="none" font-size="none" text-anchor="none" style="mix-blend-mode: normal" data-fill-palette-color="tertiary"></path></g></g><g transform="matrix(1,0,0,1,0,74.24621761857512)"><svg viewBox="0 0 395.52 98.70756476284976" height="98.70756476284976" width="395.52"><g><svg viewBox="0 0 395.52 98.70756476284976" height="98.70756476284976" width="395.52"><g><svg viewBox="0 0 395.52 98.70756476284976" height="98.70756476284976" width="395.52"><g><svg viewBox="0 0 395.52 98.70756476284976" height="98.70756476284976" width="395.52"><g><svg viewBox="0 0 395.52 98.70756476284976" height="98.70756476284976" width="395.52"><g><svg viewBox="0 0 395.52 57.251539851435446" height="57.251539851435446" width="395.52"><g transform="matrix(1,0,0,1,0,0)"><svg width="395.52" viewBox="4.35 -35.65 249.03 36.05" height="57.251539851435446" data-palette-color="#000000"><path d="M26.65 0L4.35 0 4.35-35.25 26.65-35.25 26.65-31.85 8.4-31.85 8.4-19.6 25.65-19.6 25.65-16.2 8.4-16.2 8.4-3.4 26.65-3.4 26.65 0ZM41.1 0.35Q34.95 0.35 31.35-2.8L31.35-2.8 32.7-5.8Q34.65-4.25 36.67-3.58 38.7-2.9 41.25-2.9L41.25-2.9Q43.95-2.9 45.37-3.83 46.8-4.75 46.8-6.5L46.8-6.5Q46.8-7.95 45.85-8.8 44.9-9.65 42.7-10.15L42.7-10.15 38.6-11.1Q35.5-11.8 33.85-13.5 32.2-15.2 32.2-17.7L32.2-17.7Q32.2-20.95 34.75-22.95 37.3-24.95 41.55-24.95L41.55-24.95Q44.1-24.95 46.4-24.13 48.7-23.3 50.25-21.75L50.25-21.75 48.9-18.8Q45.55-21.65 41.55-21.65L41.55-21.65Q39-21.65 37.57-20.68 36.15-19.7 36.15-17.95L36.15-17.95Q36.15-16.5 37.02-15.63 37.9-14.75 39.85-14.3L39.85-14.3 44-13.3Q47.4-12.5 49.05-10.88 50.7-9.25 50.7-6.65L50.7-6.65Q50.7-3.45 48.12-1.55 45.55 0.35 41.1 0.35L41.1 0.35ZM67.3-2.9Q68.39-2.9 69.5-3.05L69.5-3.05 69.3 0.15Q68.14 0.35 66.8 0.35L66.8 0.35Q62.39 0.35 60.17-1.95 57.95-4.25 57.95-8.35L57.95-8.35 57.95-21.15 53.2-21.15 53.2-24.35 57.95-24.35 57.95-31.75 61.99-31.75 61.99-24.35 68.89-24.35 68.89-21.15 61.99-21.15 61.99-8.65Q61.99-2.9 67.3-2.9L67.3-2.9ZM85.84-24.95Q94.59-24.95 94.59-15.3L94.59-15.3 94.59 0 90.54 0 90.54-15.05Q90.54-18.45 89.22-20 87.89-21.55 84.99-21.55L84.99-21.55Q81.64-21.55 79.64-19.5 77.64-17.45 77.64-13.95L77.64-13.95 77.64 0 73.59 0 73.59-35.25 77.64-35.25 77.64-20.45Q78.84-22.65 80.97-23.8 83.09-24.95 85.84-24.95L85.84-24.95ZM122.39-13.05L122.39-11.55 104.59-11.55Q104.79-7.3 106.89-5.13 108.99-2.95 112.84-2.95L112.84-2.95Q117.09-2.95 120.64-5.85L120.64-5.85 121.99-2.9Q120.39-1.4 117.89-0.53 115.39 0.35 112.79 0.35L112.79 0.35Q107.09 0.35 103.82-3 100.54-6.35 100.54-12.25L100.54-12.25Q100.54-16 101.99-18.88 103.44-21.75 106.07-23.35 108.69-24.95 112.04-24.95L112.04-24.95Q116.89-24.95 119.64-21.78 122.39-18.6 122.39-13.05L122.39-13.05ZM112.09-21.8Q108.89-21.8 106.97-19.8 105.04-17.8 104.69-14.15L104.69-14.15 118.84-14.15Q118.74-17.85 116.99-19.83 115.24-21.8 112.09-21.8L112.09-21.8ZM141.79-24.95L142.14-21.45 139.49-21.2Q135.74-20.85 134.06-18.85 132.39-16.85 132.39-13.9L132.39-13.9 132.39 0 128.34 0 128.34-24.35 132.29-24.35 132.29-20.1Q134.34-24.35 140.34-24.85L140.34-24.85 141.79-24.95ZM174.53 0.4Q169.53 0.4 165.83-1.78 162.13-3.95 160.16-8.03 158.18-12.1 158.18-17.65L158.18-17.65Q158.18-23.2 160.16-27.25 162.13-31.3 165.83-33.48 169.53-35.65 174.53-35.65L174.53-35.65Q178.18-35.65 181.23-34.52 184.28-33.4 186.53-31.2L186.53-31.2 184.98-28.05Q182.43-30.2 179.98-31.15 177.53-32.1 174.58-32.1L174.58-32.1Q168.78-32.1 165.61-28.33 162.43-24.55 162.43-17.65L162.43-17.65Q162.43-10.7 165.61-6.93 168.78-3.15 174.58-3.15L174.58-3.15Q177.53-3.15 179.98-4.1 182.43-5.05 184.98-7.2L184.98-7.2 186.53-4.05Q184.28-1.85 181.23-0.73 178.18 0.4 174.53 0.4L174.53 0.4ZM204.98-24.95Q213.73-24.95 213.73-15.3L213.73-15.3 213.73 0 209.68 0 209.68-15.05Q209.68-18.45 208.36-20 207.03-21.55 204.13-21.55L204.13-21.55Q200.78-21.55 198.78-19.5 196.78-17.45 196.78-13.95L196.78-13.95 196.78 0 192.73 0 192.73-35.25 196.78-35.25 196.78-20.45Q197.98-22.65 200.11-23.8 202.23-24.95 204.98-24.95L204.98-24.95ZM231.23 0.35Q227.78 0.35 225.15-1.2 222.53-2.75 221.1-5.63 219.68-8.5 219.68-12.3L219.68-12.3Q219.68-16.1 221.1-18.98 222.53-21.85 225.15-23.4 227.78-24.95 231.23-24.95L231.23-24.95Q234.68-24.95 237.33-23.4 239.98-21.85 241.4-18.98 242.83-16.1 242.83-12.3L242.83-12.3Q242.83-8.5 241.4-5.63 239.98-2.75 237.33-1.2 234.68 0.35 231.23 0.35L231.23 0.35ZM231.23-3Q234.83-3 236.75-5.38 238.68-7.75 238.68-12.3L238.68-12.3Q238.68-16.75 236.73-19.18 234.78-21.6 231.23-21.6L231.23-21.6Q227.68-21.6 225.73-19.18 223.78-16.75 223.78-12.3L223.78-12.3Q223.78-7.8 225.7-5.4 227.63-3 231.23-3L231.23-3ZM252.93 0L248.88 0 248.88-24.35 252.93-24.35 252.93 0ZM248.48-30.35L248.48-34.9 253.38-34.9 253.38-30.35 248.48-30.35Z" opacity="1" transform="matrix(1,0,0,1,0,0)" fill="#000000" class="undefined-text-0" data-fill-palette-color="primary" id="text-0"></path></svg></g></svg></g><g transform="matrix(1,0,0,1,0,65.60591355271632)"><svg viewBox="0 0 395.52 33.10165121013345" height="33.10165121013345" width="395.52"><g transform="matrix(1,0,0,1,0,0)"><svg width="395.52" viewBox="6 -42.95 663.08 55.5" height="33.10165121013345" data-palette-color="#000000"><path d="M27.95-35.2L8.8-35.2 8.8-19.9 25.45-19.9 25.45-17.2 8.8-17.2 8.8 0 6 0 6-37.9 27.95-37.9 27.95-35.2ZM53.35-27.3L56.05-27.3 56.05 0 53.35 0 53.35-3.3Q51.45-1.55 49.15-0.48 46.85 0.6 44.65 0.6L44.65 0.6Q39.8 0.6 37.5-2 35.2-4.6 35.2-10.8L35.2-10.8 35.2-27.3 37.9-27.3 37.9-10.8Q37.9-7.55 38.52-5.68 39.15-3.8 40.62-2.95 42.1-2.1 44.65-2.1L44.65-2.1Q47-2.1 49.22-3.15 51.45-4.2 53.35-6L53.35-6 53.35-27.3ZM72.2 0.65Q68.8 0.65 67.42-0.63 66.05-1.9 66.05-5.4L66.05-5.4 66.05-42.3 68.75-42.3 68.75-5.7Q68.75-3.55 69.42-2.8 70.09-2.05 71.95-2.05L71.95-2.05Q73.25-2.05 74.25-2.25L74.25-2.25 74.25 0.45Q73.25 0.65 72.2 0.65L72.2 0.65ZM86.64 0.65Q83.24 0.65 81.87-0.63 80.49-1.9 80.49-5.4L80.49-5.4 80.49-42.3 83.19-42.3 83.19-5.7Q83.19-3.55 83.87-2.8 84.54-2.05 86.39-2.05L86.39-2.05Q87.69-2.05 88.69-2.25L88.69-2.25 88.69 0.45Q87.69 0.65 86.64 0.65L86.64 0.65ZM116.69 0.85Q109.74 0.85 104.24-1.8L104.24-1.8 104.24-4.6Q109.69-1.75 116.69-1.75L116.69-1.75Q121.44-1.75 123.64-3.85 125.84-5.95 125.89-9.4L125.89-9.4Q125.89-12.6 123.81-14.28 121.74-15.95 118.14-16.95L118.14-16.95 114.74-17.9Q111.94-18.7 109.94-19.8 107.94-20.9 106.66-22.93 105.39-24.95 105.39-28.15L105.39-28.15Q105.39-33.25 108.31-35.93 111.24-38.6 116.54-38.6L116.54-38.6Q119.64-38.6 122.01-38.02 124.39-37.45 126.94-36.25L126.94-36.25 126.94-33.45Q122.09-36 116.54-36L116.54-36Q112.34-36 110.31-33.88 108.29-31.75 108.29-28.1L108.29-28.1Q108.34-24.85 110.24-23.23 112.14-21.6 115.79-20.6L115.79-20.6 119.24-19.65Q122.19-18.85 124.24-17.73 126.29-16.6 127.54-14.58 128.79-12.55 128.79-9.35L128.79-9.35Q128.74-4.6 125.51-1.88 122.29 0.85 116.69 0.85L116.69 0.85ZM143.74-2.05Q145.19-2.05 147.04-2.45L147.04-2.45 147.04 0.25Q145.29 0.65 143.74 0.65L143.74 0.65Q141.39 0.65 140.11 0.05 138.84-0.55 138.34-1.9 137.84-3.25 137.84-5.7L137.84-5.7 137.84-24.6 134.44-24.6 134.44-27.3 137.84-27.3 137.84-36.8 140.54-36.8 140.54-27.3 146.94-27.3 146.94-24.6 140.54-24.6 140.54-5.7Q140.54-3.55 141.21-2.8 141.89-2.05 143.74-2.05L143.74-2.05ZM161.58-27.3Q165.43-27.3 167.43-25.83 169.43-24.35 170.08-21.88 170.73-19.4 170.73-15.65L170.73-15.65 170.73 0 168.03 0 168.03-2.95Q166.03-1.1 164.06-0.23 162.08 0.65 159.83 0.65L159.83 0.65Q157.53 0.65 155.51-0.48 153.48-1.6 152.28-3.7 151.08-5.8 151.08-8.65L151.08-8.65Q151.08-13.1 153.91-15.6 156.73-18.1 161.33-18.1L161.33-18.1Q162.93-18.1 164.73-17.68 166.53-17.25 168.03-16.45L168.03-16.45Q167.98-19.4 167.46-21.13 166.93-22.85 165.41-23.83 163.88-24.8 160.83-24.8L160.83-24.8 158.13-24.8 158.13-27.3 161.58-27.3ZM159.83-2.05Q161.83-2.05 163.93-2.95 166.03-3.85 168.03-5.75L168.03-5.75 168.03-13.85Q165.13-15.4 161.33-15.4L161.33-15.4Q158.23-15.4 156.06-13.85 153.88-12.3 153.88-8.65L153.88-8.65Q153.88-5.25 155.73-3.65 157.58-2.05 159.83-2.05L159.83-2.05ZM190.23 0.85Q184.03 0.8 180.68-3.15 177.33-7.1 177.33-13.7L177.33-13.7Q177.33-20.25 180.68-24.15 184.03-28.05 190.23-28.1L190.23-28.1Q192.33-28.1 193.86-27.78 195.38-27.45 197.18-26.75L197.18-26.75 197.18-23.85Q195.38-24.7 193.78-25.05 192.18-25.4 190.23-25.4L190.23-25.4Q184.98-25.35 182.56-22.15 180.13-18.95 180.13-13.75L180.13-13.75Q180.13-8.4 182.56-5.15 184.98-1.9 190.23-1.85L190.23-1.85Q193.83-1.85 198.38-3.9L198.38-3.9 199.38-1.4Q194.88 0.85 190.23 0.85L190.23 0.85ZM223.73 0L212.33-14.45 208.98-11.05 208.98 0 206.28 0 206.28-42.3 208.98-42.3 208.98-14.65 221.53-27.3 225.13-27.3 214.23-16.35 227.13 0 223.73 0ZM255.37 0.85Q248.42 0.85 242.92-1.8L242.92-1.8 242.92-4.6Q248.37-1.75 255.37-1.75L255.37-1.75Q260.12-1.75 262.32-3.85 264.52-5.95 264.57-9.4L264.57-9.4Q264.57-12.6 262.5-14.28 260.42-15.95 256.82-16.95L256.82-16.95 253.42-17.9Q250.62-18.7 248.62-19.8 246.62-20.9 245.35-22.93 244.07-24.95 244.07-28.15L244.07-28.15Q244.07-33.25 247-35.93 249.92-38.6 255.22-38.6L255.22-38.6Q258.32-38.6 260.7-38.02 263.07-37.45 265.62-36.25L265.62-36.25 265.62-33.45Q260.77-36 255.22-36L255.22-36Q251.02-36 249-33.88 246.97-31.75 246.97-28.1L246.97-28.1Q247.02-24.85 248.92-23.23 250.82-21.6 254.47-20.6L254.47-20.6 257.92-19.65Q260.87-18.85 262.92-17.73 264.97-16.6 266.22-14.58 267.47-12.55 267.47-9.35L267.47-9.35Q267.42-4.6 264.2-1.88 260.97 0.85 255.37 0.85L255.37 0.85ZM287.32 0.85Q283.17 0.85 280.25-1.05 277.32-2.95 275.87-6.25 274.42-9.55 274.42-13.65L274.42-13.65Q274.42-17.75 275.87-21.03 277.32-24.3 280.25-26.2 283.17-28.1 287.32-28.1L287.32-28.1Q291.47-28.1 294.37-26.2 297.27-24.3 298.72-21.03 300.17-17.75 300.17-13.65L300.17-13.65Q300.17-9.55 298.72-6.25 297.27-2.95 294.37-1.05 291.47 0.85 287.32 0.85L287.32 0.85ZM287.32-1.85Q290.47-1.85 292.75-3.43 295.02-5 296.2-7.68 297.37-10.35 297.37-13.65L297.37-13.65Q297.37-16.95 296.2-19.63 295.02-22.3 292.77-23.85 290.52-25.4 287.32-25.4L287.32-25.4Q284.12-25.4 281.85-23.85 279.57-22.3 278.4-19.63 277.22-16.95 277.22-13.65L277.22-13.65Q277.22-10.35 278.4-7.68 279.57-5 281.85-3.43 284.12-1.85 287.32-1.85L287.32-1.85ZM314.87-40.25Q313.02-40.25 312.34-39.5 311.67-38.75 311.67-36.6L311.67-36.6 311.67-27.3 317.17-27.3 317.17-24.6 311.67-24.6 311.67 0 308.97 0 308.97-24.6 305.57-24.6 305.57-27.3 308.97-27.3 308.97-36.9Q308.97-40.4 310.34-41.68 311.72-42.95 315.12-42.95L315.12-42.95Q316.17-42.95 317.17-42.75L317.17-42.75 317.17-40.05Q316.17-40.25 314.87-40.25L314.87-40.25ZM329.77-2.05Q331.22-2.05 333.06-2.45L333.06-2.45 333.06 0.25Q331.31 0.65 329.77 0.65L329.77 0.65Q327.42 0.65 326.14 0.05 324.87-0.55 324.37-1.9 323.87-3.25 323.87-5.7L323.87-5.7 323.87-24.6 320.47-24.6 320.47-27.3 323.87-27.3 323.87-36.8 326.56-36.8 326.56-27.3 332.97-27.3 332.97-24.6 326.56-24.6 326.56-5.7Q326.56-3.55 327.24-2.8 327.92-2.05 329.77-2.05L329.77-2.05ZM372.06-27.3L374.96-27.3 365.81 0.45 363.41 0.45 355.66-22.9 347.96 0.45 345.56 0.45 336.36-27.3 339.26-27.3 346.76-3.95 354.21-27.3 357.11-27.3 364.61-3.95 372.06-27.3ZM388.21-27.3Q392.06-27.3 394.06-25.83 396.06-24.35 396.71-21.88 397.36-19.4 397.36-15.65L397.36-15.65 397.36 0 394.66 0 394.66-2.95Q392.66-1.1 390.69-0.23 388.71 0.65 386.46 0.65L386.46 0.65Q384.16 0.65 382.14-0.48 380.11-1.6 378.91-3.7 377.71-5.8 377.71-8.65L377.71-8.65Q377.71-13.1 380.54-15.6 383.36-18.1 387.96-18.1L387.96-18.1Q389.56-18.1 391.36-17.68 393.16-17.25 394.66-16.45L394.66-16.45Q394.61-19.4 394.09-21.13 393.56-22.85 392.04-23.83 390.51-24.8 387.46-24.8L387.46-24.8 384.76-24.8 384.76-27.3 388.21-27.3ZM386.46-2.05Q388.46-2.05 390.56-2.95 392.66-3.85 394.66-5.75L394.66-5.75 394.66-13.85Q391.76-15.4 387.96-15.4L387.96-15.4Q384.86-15.4 382.69-13.85 380.51-12.3 380.51-8.65L380.51-8.65Q380.51-5.25 382.36-3.65 384.21-2.05 386.46-2.05L386.46-2.05ZM417.01-27.9L418.16-27.9 418.16-25.2 417.01-25.2Q414.66-25.2 412.43-24.15 410.21-23.1 408.31-21.3L408.31-21.3 408.31 0 405.61 0 405.61-27.3 408.31-27.3 408.31-24Q410.21-25.75 412.51-26.83 414.81-27.9 417.01-27.9L417.01-27.9ZM425.81-14.45L425.81-13.75Q425.81-8.4 428.23-5.13 430.66-1.85 435.91-1.85L435.91-1.85Q439.51-1.85 444.06-3.9L444.06-3.9 445.06-1.4Q440.66 0.85 435.91 0.85L435.91 0.85Q429.71 0.85 426.36-3.13 423.01-7.1 423.01-13.7L423.01-13.7Q423.01-18.3 424.58-21.55 426.16-24.8 428.86-26.45 431.56-28.1 434.91-28.1L434.91-28.1Q439.96-28.1 442.83-24.85 445.71-21.6 445.76-15.5L445.76-15.5 445.76-14.45 425.81-14.45ZM434.91-25.4Q431.36-25.4 429.03-23.33 426.71-21.25 426.06-17.15L426.06-17.15 442.91-17.15Q442.61-21.4 440.66-23.4 438.71-25.4 434.91-25.4L434.91-25.4ZM468.05-2.7L487.45-2.7 487.45 0 465.25 0 465.25-37.9 487.2-37.9 487.2-35.2 468.05-35.2 468.05-20.4 484.7-20.4 484.7-17.7 468.05-17.7 468.05-2.7ZM506.85-27.9Q511.7-27.9 514-25.3 516.3-22.7 516.3-16.5L516.3-16.5 516.3 0 513.6 0 513.6-16.5Q513.6-19.75 512.97-21.63 512.35-23.5 510.87-24.35 509.4-25.2 506.85-25.2L506.85-25.2Q502.3-25.2 498.15-21.3L498.15-21.3 498.15 0 495.45 0 495.45-27.3 498.15-27.3 498.15-24Q500.1-25.75 502.37-26.83 504.65-27.9 506.85-27.9L506.85-27.9ZM544.5-27.3L547.19-27.3 547.19 0.9Q547.19 4.65 546.39 7.13 545.59 9.6 543.14 11.08 540.69 12.55 536.04 12.55L536.04 12.55Q533.34 12.55 531.39 12.15 529.44 11.75 527.09 10.75L527.09 10.75 527.09 7.75Q531.44 9.85 535.29 9.85L535.29 9.85Q539.44 9.85 541.42 8.78 543.39 7.7 543.94 5.8 544.5 3.9 544.5 0.4L544.5 0.4 544.5-3.85Q542.59-2.15 540.5-1.15 538.39-0.15 536.29-0.15L536.29-0.15Q532.75-0.15 530.07-1.8 527.39-3.45 525.89-6.63 524.39-9.8 524.39-14.15L524.39-14.15Q524.39-20.95 527.62-24.53 530.84-28.1 536.29-28.1L536.29-28.1Q538.39-28.1 540.5-27.1 542.59-26.1 544.5-24.4L544.5-24.4 544.5-27.3ZM536.29-2.85Q540.54-2.85 544.5-6.55L544.5-6.55 544.5-21.7Q540.54-25.4 536.29-25.4L536.29-25.4Q531.89-25.4 529.54-22.38 527.19-19.35 527.19-14.15L527.19-14.15Q527.19-8.85 529.54-5.85 531.89-2.85 536.29-2.85L536.29-2.85ZM556.04-32.85L556.04-40.4 558.74-40.4 558.74-32.85 556.04-32.85ZM556.04 0L556.04-27.3 558.74-27.3 558.74 0 556.04 0ZM580.14-27.9Q584.99-27.9 587.29-25.3 589.59-22.7 589.59-16.5L589.59-16.5 589.59 0 586.89 0 586.89-16.5Q586.89-19.75 586.26-21.63 585.64-23.5 584.16-24.35 582.69-25.2 580.14-25.2L580.14-25.2Q575.59-25.2 571.44-21.3L571.44-21.3 571.44 0 568.74 0 568.74-27.3 571.44-27.3 571.44-24Q573.39-25.75 575.66-26.83 577.94-27.9 580.14-27.9L580.14-27.9ZM600.49-14.45L600.49-13.75Q600.49-8.4 602.91-5.13 605.34-1.85 610.59-1.85L610.59-1.85Q614.19-1.85 618.74-3.9L618.74-3.9 619.74-1.4Q615.34 0.85 610.59 0.85L610.59 0.85Q604.39 0.85 601.04-3.13 597.69-7.1 597.69-13.7L597.69-13.7Q597.69-18.3 599.26-21.55 600.84-24.8 603.54-26.45 606.24-28.1 609.59-28.1L609.59-28.1Q614.64-28.1 617.51-24.85 620.39-21.6 620.44-15.5L620.44-15.5 620.44-14.45 600.49-14.45ZM609.59-25.4Q606.04-25.4 603.71-23.33 601.39-21.25 600.74-17.15L600.74-17.15 617.59-17.15Q617.29-21.4 615.34-23.4 613.39-25.4 609.59-25.4L609.59-25.4ZM629.08-14.45L629.08-13.75Q629.08-8.4 631.51-5.13 633.93-1.85 639.18-1.85L639.18-1.85Q642.78-1.85 647.33-3.9L647.33-3.9 648.33-1.4Q643.93 0.85 639.18 0.85L639.18 0.85Q632.98 0.85 629.63-3.13 626.28-7.1 626.28-13.7L626.28-13.7Q626.28-18.3 627.86-21.55 629.43-24.8 632.13-26.45 634.83-28.1 638.18-28.1L638.18-28.1Q643.23-28.1 646.11-24.85 648.98-21.6 649.03-15.5L649.03-15.5 649.03-14.45 629.08-14.45ZM638.18-25.4Q634.63-25.4 632.31-23.33 629.98-21.25 629.33-17.15L629.33-17.15 646.18-17.15Q645.88-21.4 643.93-23.4 641.98-25.4 638.18-25.4L638.18-25.4ZM667.93-27.9L669.08-27.9 669.08-25.2 667.93-25.2Q665.58-25.2 663.36-24.15 661.13-23.1 659.23-21.3L659.23-21.3 659.23 0 656.53 0 656.53-27.3 659.23-27.3 659.23-24Q661.13-25.75 663.43-26.83 665.73-27.9 667.93-27.9L667.93-27.9Z" opacity="1" transform="matrix(1,0,0,1,0,0)" fill="#000000" class="undefined-text-1" data-fill-palette-color="secondary" id="text-1"></path></svg></g></svg></g></svg></g></svg></g></svg></g></svg></g></svg></g></svg></g><defs></defs></svg><rect width="395.52" height="247.2" fill="none" stroke="none" visibility="hidden"></rect></g></svg></g></svg>