<svg xmlns="http://www.w3.org/2000/svg" version="1.1" xmlns:xlink="http://www.w3.org/1999/xlink" xmlns:svgjs="http://svgjs.dev/svgjs" width="128" height="128" viewBox="0 0 128 128"><g transform="matrix(0.8046875,0,0,0.8046875,12.333870967741937,12.333870967741937)"><svg viewBox="0 0 155 155" data-background-color="#ffffff" preserveAspectRatio="xMidYMid meet" height="128" width="128" xmlns="http://www.w3.org/2000/svg" xmlns:xlink="http://www.w3.org/1999/xlink"><g id="tight-bounds" transform="matrix(1,0,0,1,0.25,0.25)"><svg viewBox="0 0 154.5 154.5" height="154.5" width="154.5"><g><svg></svg></g><g><svg viewBox="0 0 154.5 154.5" height="154.5" width="154.5"><g transform="matrix(1,0,0,1,29.509500000000003,46.48958847184987)"><svg viewBox="0 0 95.481 61.52082305630026" height="61.52082305630026" width="95.481"><g><svg viewBox="0 0 95.481 61.52082305630026" height="61.52082305630026" width="95.481"><g><svg viewBox="0 0 95.481 61.52082305630026" height="61.52082305630026" width="95.481"><g><svg viewBox="0 0 95.481 61.52082305630026" height="61.52082305630026" width="95.481"><g><svg viewBox="0 0 95.481 61.52082305630026" height="61.52082305630026" width="95.481"><g transform="matrix(1,0,0,1,0,0)"><svg width="95.481" viewBox="4.35 -35.65 55.949999999999996 36.05" height="61.52082305630026" data-palette-color="#f43f5e"><path d="M26.65 0L4.35 0 4.35-35.25 26.65-35.25 26.65-31.85 8.4-31.85 8.4-19.6 25.65-19.6 25.65-16.2 8.4-16.2 8.4-3.4 26.65-3.4 26.65 0ZM48.3 0.4Q43.3 0.4 39.6-1.78 35.9-3.95 33.92-8.03 31.95-12.1 31.95-17.65L31.95-17.65Q31.95-23.2 33.92-27.25 35.9-31.3 39.6-33.48 43.3-35.65 48.3-35.65L48.3-35.65Q51.95-35.65 55-34.52 58.05-33.4 60.3-31.2L60.3-31.2 58.75-28.05Q56.2-30.2 53.75-31.15 51.3-32.1 48.35-32.1L48.35-32.1Q42.55-32.1 39.37-28.33 36.2-24.55 36.2-17.65L36.2-17.65Q36.2-10.7 39.37-6.93 42.55-3.15 48.35-3.15L48.35-3.15Q51.3-3.15 53.75-4.1 56.2-5.05 58.75-7.2L58.75-7.2 60.3-4.05Q58.05-1.85 55-0.73 51.95 0.4 48.3 0.4L48.3 0.4Z" opacity="1" transform="matrix(1,0,0,1,0,0)" fill="#f43f5e" class="undefined-text-0" data-fill-palette-color="primary" id="text-0"></path></svg></g></svg></g></svg></g></svg></g></svg></g></svg></g><g><path d="M0 154.5v-154.5h154.5v154.5zM148.952 148.952v-143.404h-143.404v143.404z" fill="#f43f5e" fill-rule="nonzero" stroke="none" stroke-width="1" stroke-linecap="butt" stroke-linejoin="miter" stroke-miterlimit="10" stroke-dasharray="" stroke-dashoffset="0" font-family="none" font-weight="none" font-size="none" text-anchor="none" style="mix-blend-mode: normal" data-fill-palette-color="tertiary"></path></g></svg></g><defs></defs></svg><rect width="154.5" height="154.5" fill="none" stroke="none" visibility="hidden"></rect></g></svg></g></svg>