{
	"asset":{
		"generator":"Khronos glTF Blender I/O v3.5.30",
		"version":"2.0"
	},
	"scene":0,
	"scenes":[
		{
			"name":"Scene",
			"nodes":[
				0,
				1,
				2
			]
		}
	],
	"nodes":[
		{
			"mesh":0,
			"name":"01_office"
		},
		{
			"mesh":1,
			"name":"02_library",
			"translation":[
				0,
				2.114126682281494,
				-2.230252504348755
			]
		},
		{
			"mesh":2,
			"name":"03_attic",
			"translation":[
				-1.970313549041748,
				4.227474689483643,
				-2.1987247467041016
			]
		}
	],
	"materials":[
		{
			"doubleSided":true,
			"name":"01",
			"pbrMetallicRoughness":{
				"metallicFactor":0,
				"roughnessFactor":0.5
			}
		},
		{
			"doubleSided":true,
			"name":"02",
			"pbrMetallicRoughness":{
				"metallicFactor":0,
				"roughnessFactor":0.5
			}
		},
		{
			"doubleSided":true,
			"name":"03",
			"pbrMetallicRoughness":{
				"metallicFactor":0,
				"roughnessFactor":0.5
			}
		}
	],
	"meshes":[
		{
			"name":"01_office",
			"primitives":[
				{
					"attributes":{
						"POSITION":0,
						"TEXCOORD_0":1,
						"NORMAL":2
					},
					"indices":3,
					"material":0
				}
			]
		},
		{
			"name":"02_library",
			"primitives":[
				{
					"attributes":{
						"POSITION":4,
						"TEXCOORD_0":5,
						"NORMAL":6
					},
					"indices":7,
					"material":1
				}
			]
		},
		{
			"name":"03_attic",
			"primitives":[
				{
					"attributes":{
						"POSITION":8,
						"TEXCOORD_0":9,
						"NORMAL":10
					},
					"indices":11,
					"material":2
				}
			]
		}
	],
	"accessors":[
		{
			"bufferView":0,
			"componentType":5126,
			"count":6743,
			"max":[
				1.0296627283096313,
				2.114126682281494,
				1.0288589000701904
			],
			"min":[
				-1.2296627759933472,
				-0.20000000298023224,
				-1.2677491903305054
			],
			"type":"VEC3"
		},
		{
			"bufferView":1,
			"componentType":5126,
			"count":6743,
			"type":"VEC2"
		},
		{
			"bufferView":2,
			"componentType":5126,
			"count":6743,
			"type":"VEC3"
		},
		{
			"bufferView":3,
			"componentType":5123,
			"count":17916,
			"type":"SCALAR"
		},
		{
			"bufferView":4,
			"componentType":5126,
			"count":5406,
			"max":[
				1.030163288116455,
				2.1142826080322266,
				1.0315277576446533
			],
			"min":[
				-1.2296627759933472,
				-0.17129023373126984,
				-1.2300457954406738
			],
			"type":"VEC3"
		},
		{
			"bufferView":5,
			"componentType":5126,
			"count":5406,
			"type":"VEC2"
		},
		{
			"bufferView":6,
			"componentType":5126,
			"count":5406,
			"type":"VEC3"
		},
		{
			"bufferView":7,
			"componentType":5123,
			"count":12930,
			"type":"SCALAR"
		},
		{
			"bufferView":8,
			"componentType":5126,
			"count":10224,
			"max":[
				1.0299999713897705,
				2.1138036251068115,
				1.0195188522338867
			],
			"min":[
				-1.4170762300491333,
				-0.17129023373126984,
				-1.2829097509384155
			],
			"type":"VEC3"
		},
		{
			"bufferView":9,
			"componentType":5126,
			"count":10224,
			"type":"VEC2"
		},
		{
			"bufferView":10,
			"componentType":5126,
			"count":10224,
			"type":"VEC3"
		},
		{
			"bufferView":11,
			"componentType":5123,
			"count":34254,
			"type":"SCALAR"
		}
	],
	"bufferViews":[
		{
			"buffer":0,
			"byteLength":80916,
			"byteOffset":0,
			"target":34962
		},
		{
			"buffer":0,
			"byteLength":53944,
			"byteOffset":80916,
			"target":34962
		},
		{
			"buffer":0,
			"byteLength":80916,
			"byteOffset":134860,
			"target":34962
		},
		{
			"buffer":0,
			"byteLength":35832,
			"byteOffset":215776,
			"target":34963
		},
		{
			"buffer":0,
			"byteLength":64872,
			"byteOffset":251608,
			"target":34962
		},
		{
			"buffer":0,
			"byteLength":43248,
			"byteOffset":316480,
			"target":34962
		},
		{
			"buffer":0,
			"byteLength":64872,
			"byteOffset":359728,
			"target":34962
		},
		{
			"buffer":0,
			"byteLength":25860,
			"byteOffset":424600,
			"target":34963
		},
		{
			"buffer":0,
			"byteLength":122688,
			"byteOffset":450460,
			"target":34962
		},
		{
			"buffer":0,
			"byteLength":81792,
			"byteOffset":573148,
			"target":34962
		},
		{
			"buffer":0,
			"byteLength":122688,
			"byteOffset":654940,
			"target":34962
		},
		{
			"buffer":0,
			"byteLength":68508,
			"byteOffset":777628,
			"target":34963
		}
	],
	"buffers":[
		{
			"byteLength":846136,
			"uri":"data:application/octet-stream;base64,"
		}
	]
}
